<?xml version="1.0" encoding="UTF-8"?>
<svg width="520" height="220" viewBox="0 0 620 260" fill="none" xmlns="http://www.w3.org/2000/svg">
  <defs>
    <linearGradient id="hayabusa-shell" x1="70" y1="30" x2="456" y2="214" gradientUnits="userSpaceOnUse">
      <stop stop-color="#1e8a7c"/>
      <stop offset="0.52" stop-color="#18566a"/>
      <stop offset="1" stop-color="#10313e"/>
    </linearGradient>
    <linearGradient id="hayabusa-stripe" x1="86" y1="120" x2="470" y2="120" gradientUnits="userSpaceOnUse">
      <stop stop-color="#df4f63"/>
      <stop offset="1" stop-color="#ff93a0"/>
    </linearGradient>
    <linearGradient id="hayabusa-glass" x1="120" y1="56" x2="272" y2="122" gradientUnits="userSpaceOnUse">
      <stop stop-color="#dff4ff"/>
      <stop offset="1" stop-color="#16283d"/>
    </linearGradient>
    <filter id="hayabusa-shadow" x="0" y="0" width="620" height="260" filterUnits="userSpaceOnUse">
      <feDropShadow dx="0" dy="18" stdDeviation="14" flood-color="#091523" flood-opacity="0.26"/>
    </filter>
  </defs>
  <g filter="url(#hayabusa-shadow)">
    <path d="M54 178C30 150 34 100 74 74C118 46 174 38 236 38H432C474 38 506 58 518 96L526 122V178H54Z" fill="url(#hayabusa-shell)"/>
    <rect x="246" y="44" width="284" height="134" rx="28" fill="url(#hayabusa-shell)"/>
    <path d="M96 112H516" stroke="url(#hayabusa-stripe)" stroke-width="20" stroke-linecap="round"/>
    <path d="M98 78C116 56 150 48 186 50C178 78 180 108 196 126H94C92 108 92 94 98 78Z" fill="url(#hayabusa-glass)" opacity="0.92"/>
    <rect x="134" y="64" width="42" height="32" rx="10" fill="#16283d" opacity="0.86"/>
    <rect x="210" y="60" width="34" height="58" rx="12" fill="#16283d" opacity="0.82"/>
    <rect x="268" y="66" width="42" height="30" rx="10" fill="#16283d" opacity="0.84"/>
    <rect x="324" y="66" width="42" height="30" rx="10" fill="#16283d" opacity="0.82"/>
    <rect x="380" y="66" width="42" height="30" rx="10" fill="#16283d" opacity="0.8"/>
    <rect x="436" y="66" width="42" height="30" rx="10" fill="#16283d" opacity="0.78"/>
    <rect x="492" y="58" width="24" height="74" rx="10" fill="#edf5ff" opacity="0.44"/>
    <path d="M84 50H472" stroke="#ffffff" stroke-width="10" stroke-linecap="round" opacity="0.14"/>
    <path d="M118 94H510" stroke="#ffffff" stroke-width="5" stroke-linecap="round" opacity="0.22"/>
    <path d="M108 150H514" stroke="#1a2432" stroke-width="8" stroke-linecap="round" opacity="0.36"/>
    <rect x="150" y="166" width="318" height="12" rx="6" fill="#28313f" opacity="0.72"/>
    <circle cx="194" cy="188" r="21" fill="#273447"/>
    <circle cx="194" cy="188" r="10" fill="#91a6bb"/>
    <circle cx="412" cy="188" r="21" fill="#273447"/>
    <circle cx="412" cy="188" r="10" fill="#91a6bb"/>
    <circle cx="84" cy="114" r="10" fill="#fff4bf" opacity="0.86"/>
    <circle cx="104" cy="120" r="7" fill="#fff9df" opacity="0.6"/>
    <path d="M104 42H458" stroke="#5d6b7b" stroke-width="7" stroke-linecap="round" opacity="0.36"/>
    <text x="522" y="170" fill="#ffffff" font-size="24" font-weight="700" font-family="Segoe UI, Arial, sans-serif">E5</text>
  </g>
</svg>