<?xml version="1.0" encoding="UTF-8"?>
<svg width="520" height="220" viewBox="0 0 620 260" fill="none" xmlns="http://www.w3.org/2000/svg">
  <defs>
    <linearGradient id="thomas-shell" x1="70" y1="30" x2="456" y2="214" gradientUnits="userSpaceOnUse">
      <stop stop-color="#4e9ce2"/>
      <stop offset="0.52" stop-color="#2d6cba"/>
      <stop offset="1" stop-color="#1e4276"/>
    </linearGradient>
    <linearGradient id="thomas-stripe" x1="86" y1="120" x2="470" y2="120" gradientUnits="userSpaceOnUse">
      <stop stop-color="#f2d35d"/>
      <stop offset="1" stop-color="#ffeaa5"/>
    </linearGradient>
    <linearGradient id="thomas-glass" x1="120" y1="56" x2="272" y2="122" gradientUnits="userSpaceOnUse">
      <stop stop-color="#dff4ff"/>
      <stop offset="1" stop-color="#eff9ff"/>
    </linearGradient>
    <linearGradient id="thomas-metal" x1="82" y1="44" x2="478" y2="190" gradientUnits="userSpaceOnUse">
      <stop stop-color="#ffffff" stop-opacity="0.54"/>
      <stop offset="0.28" stop-color="#ffffff" stop-opacity="0.1"/>
      <stop offset="1" stop-color="#ffffff" stop-opacity="0"/>
    </linearGradient>
    <filter id="thomas-shadow" x="0" y="0" width="620" height="260" filterUnits="userSpaceOnUse">
      <feDropShadow dx="0" dy="18" stdDeviation="14" flood-color="#091523" flood-opacity="0.26"/>
    </filter>
  </defs>
  <g filter="url(#thomas-shadow)">
    <path d="M68 178C42 172 34 146 40 114C52 68 98 42 160 42H434C474 42 500 58 514 86L526 114V178H68Z" fill="url(#thomas-shell)"/>
    <rect x="246" y="44" width="284" height="134" rx="28" fill="url(#thomas-shell)"/>
    <path d="M96 112H516" stroke="url(#thomas-stripe)" stroke-width="20" stroke-linecap="round"/>
    <path d="M98 78C116 56 150 48 186 50C178 78 180 108 196 126H94C92 108 92 94 98 78Z" fill="url(#thomas-glass)" opacity="0.92"/>
    <path d="M68 178C42 172 34 146 40 114C52 68 98 42 160 42H434C474 42 500 58 514 86L526 114V178H68Z" fill="url(#thomas-metal)" opacity="0.44"/>
    <rect x="134" y="64" width="42" height="32" rx="10" fill="#eff9ff" opacity="0.86"/>
    <rect x="210" y="60" width="34" height="58" rx="12" fill="#eff9ff" opacity="0.82"/>
    <rect x="268" y="66" width="42" height="30" rx="10" fill="#eff9ff" opacity="0.84"/>
    <rect x="324" y="66" width="42" height="30" rx="10" fill="#eff9ff" opacity="0.82"/>
    <rect x="380" y="66" width="42" height="30" rx="10" fill="#eff9ff" opacity="0.8"/>
    <rect x="436" y="66" width="42" height="30" rx="10" fill="#eff9ff" opacity="0.78"/>
    <rect x="492" y="58" width="24" height="74" rx="10" fill="#edf5ff" opacity="0.44"/>
    <path d="M84 50H472" stroke="#ffffff" stroke-width="10" stroke-linecap="round" opacity="0.14"/>
    <path d="M118 94H510" stroke="#ffffff" stroke-width="5" stroke-linecap="round" opacity="0.22"/>
    <path d="M108 150H514" stroke="#1a2432" stroke-width="8" stroke-linecap="round" opacity="0.36"/>
    <path d="M132 126H510" stroke="#ffffff" stroke-width="4" stroke-linecap="round" opacity="0.12"/>
    <rect x="150" y="166" width="318" height="12" rx="6" fill="#28313f" opacity="0.72"/>
    <rect x="280" y="40" width="216" height="8" rx="4" fill="#ffffff" opacity="0.12"/>
    <path d="M272 48H510" stroke="#202b38" stroke-width="4" opacity="0.16"/>
    <path d="M264 176H514" stroke="#10161e" stroke-width="10" opacity="0.26"/>
    <circle cx="194" cy="188" r="21" fill="#273447"/>
    <circle cx="194" cy="188" r="10" fill="#91a6bb"/>
    <circle cx="412" cy="188" r="21" fill="#273447"/>
    <circle cx="412" cy="188" r="10" fill="#91a6bb"/>
    <circle cx="84" cy="114" r="10" fill="#fff4bf" opacity="0.86"/>
    <circle cx="104" cy="120" r="7" fill="#fff9df" opacity="0.6"/>
    <path d="M66 114C46 120 30 132 20 150" stroke="#fff8d6" stroke-width="8" stroke-linecap="round" opacity="0.18"/>
    <path d="M104 42H458" stroke="#5d6b7b" stroke-width="7" stroke-linecap="round" opacity="0.36"/>
    <text x="522" y="170" fill="#ffffff" font-size="24" font-weight="700" font-family="Segoe UI, Arial, sans-serif">THO</text>
  </g>
</svg>