<?xml version="1.0" encoding="UTF-8"?>
<svg width="520" height="240" viewBox="0 0 520 240" fill="none" xmlns="http://www.w3.org/2000/svg">
  <defs>
    <linearGradient id="angelfish-skin" x1="72" y1="40" x2="330" y2="208" gradientUnits="userSpaceOnUse">
      <stop stop-color="#d2f5ff"/>
      <stop offset="0.58" stop-color="#75c6d3"/>
      <stop offset="1" stop-color="#2c7284"/>
    </linearGradient>
    <linearGradient id="angelfish-belly" x1="126" y1="118" x2="262" y2="202" gradientUnits="userSpaceOnUse">
      <stop stop-color="#eefcff"/>
      <stop offset="1" stop-color="#75c6d3"/>
    </linearGradient>
    <linearGradient id="angelfish-fin" x1="150" y1="34" x2="246" y2="214" gradientUnits="userSpaceOnUse">
      <stop stop-color="#f7a1ba"/>
      <stop offset="1" stop-color="#ffffff"/>
    </linearGradient>
    <radialGradient id="angelfish-shine" cx="0" cy="0" r="1" gradientUnits="userSpaceOnUse" gradientTransform="translate(168 88) rotate(24) scale(132 84)">
      <stop stop-color="#ffffff" stop-opacity="0.82"/>
      <stop offset="1" stop-color="#ffffff" stop-opacity="0"/>
    </radialGradient>
    <linearGradient id="angelfish-rim" x1="108" y1="82" x2="310" y2="170" gradientUnits="userSpaceOnUse">
      <stop stop-color="#ffffff" stop-opacity="0.56"/>
      <stop offset="0.36" stop-color="#ffffff" stop-opacity="0.12"/>
      <stop offset="1" stop-color="#ffffff" stop-opacity="0"/>
    </linearGradient>
    <pattern id="angelfish-scales" width="20" height="18" patternUnits="userSpaceOnUse" patternTransform="rotate(10)">
      <path d="M2 16C6 8 14 8 18 16" stroke="#ffffff" stroke-opacity="0.08" stroke-width="2" stroke-linecap="round"/>
    </pattern>
    <filter id="angelfish-shadow" x="0" y="0" width="520" height="240" filterUnits="userSpaceOnUse">
      <feDropShadow dx="0" dy="18" stdDeviation="14" flood-color="#071a2d" flood-opacity="0.28"/>
    </filter>
  </defs>
  <g filter="url(#angelfish-shadow)">
    <path d="M92 132C92 74 138 34 204 38C262 42 304 80 314 124C308 172 264 204 202 206C132 204 94 176 92 132Z" fill="url(#angelfish-skin)"/>
    <path d="M126 144C142 172 174 190 212 188C242 186 272 172 292 146C270 188 228 208 178 206C148 204 130 182 126 144Z" fill="url(#angelfish-belly)" opacity="0.92"/>
    <path d="M306 120C350 98 390 96 402 112C390 128 350 164 316 170C324 156 326 136 306 120Z" fill="url(#angelfish-skin)"/>
    <path d="M170 42C180 10 204 0 220 6C216 34 230 56 252 80C226 68 196 56 170 42Z" fill="url(#angelfish-fin)" opacity="0.92"/>
    <path d="M160 178C182 194 198 214 196 232C176 220 154 206 134 188C148 186 156 182 160 178Z" fill="url(#angelfish-fin)" opacity="0.88"/>
    <path d="M92 132C92 74 138 34 204 38C262 42 304 80 314 124C308 172 264 204 202 206C132 204 94 176 92 132Z" fill="url(#angelfish-shine)" opacity="0.46"/>
    <path d="M92 132C92 74 138 34 204 38C262 42 304 80 314 124C308 172 264 204 202 206C132 204 94 176 92 132Z" fill="url(#angelfish-scales)" opacity="0.7"/>
    <path d="M92 132C92 74 138 34 204 38C262 42 304 80 314 124C308 172 264 204 202 206C132 204 94 176 92 132Z" fill="url(#angelfish-rim)" opacity="0.42"/>
    
    <path d="M132 86C186 64 246 70 294 106" stroke="#ffffff" stroke-width="16" stroke-linecap="round" opacity="0.22"/>
    <path d="M122 138C182 154 244 148 286 126" stroke="#ffffff" stroke-width="8" stroke-linecap="round" opacity="0.16"/>
  
    <path d="M110 122C158 92 238 84 308 114" stroke="#ffffff" stroke-width="10" stroke-linecap="round" opacity="0.12"/>
    <path d="M104 138C164 112 248 112 314 136" stroke="#0f2038" stroke-width="8" stroke-linecap="round" opacity="0.08"/>
    <path d="M152 70C172 78 186 94 194 116" stroke="#ffffff" stroke-width="8" stroke-linecap="round" opacity="0.14"/>
    <path d="M142 104C154 120 154 146 144 164" stroke="#233244" stroke-width="5" stroke-linecap="round" opacity="0.42"/>
    <path d="M74 130C62 130 56 136 54 144" stroke="#243448" stroke-width="4" stroke-linecap="round" opacity="0.48"/>
    <circle cx="118" cy="112" r="15" fill="#ffffff"/>
    <circle cx="120" cy="112" r="7.5" fill="#1f2c3f"/>
    <circle cx="123" cy="108" r="2.4" fill="#ffffff"/>
    <ellipse cx="264" cy="162" rx="90" ry="20" fill="#081a2f" opacity="0.08"/>
  </g>
</svg>