<?xml version="1.0" encoding="UTF-8"?>
<svg width="520" height="240" viewBox="0 0 520 240" fill="none" xmlns="http://www.w3.org/2000/svg">
  <defs>
    <linearGradient id="angelfish-skin" x1="72" y1="40" x2="330" y2="208" gradientUnits="userSpaceOnUse">
      <stop stop-color="#d2f5ff"/>
      <stop offset="0.58" stop-color="#75c6d3"/>
      <stop offset="1" stop-color="#2c7284"/>
    </linearGradient>
    <linearGradient id="angelfish-belly" x1="126" y1="118" x2="262" y2="202" gradientUnits="userSpaceOnUse">
      <stop stop-color="#eefcff"/>
      <stop offset="1" stop-color="#75c6d3"/>
    </linearGradient>
    <linearGradient id="angelfish-fin" x1="150" y1="34" x2="246" y2="214" gradientUnits="userSpaceOnUse">
      <stop stop-color="#f7a1ba"/>
      <stop offset="1" stop-color="#ffffff"/>
    </linearGradient>
    <radialGradient id="angelfish-shine" cx="0" cy="0" r="1" gradientUnits="userSpaceOnUse" gradientTransform="translate(168 88) rotate(24) scale(132 84)">
      <stop stop-color="#ffffff" stop-opacity="0.82"/>
      <stop offset="1" stop-color="#ffffff" stop-opacity="0"/>
    </radialGradient>
    <filter id="angelfish-shadow" x="0" y="0" width="520" height="240" filterUnits="userSpaceOnUse">
      <feDropShadow dx="0" dy="18" stdDeviation="14" flood-color="#071a2d" flood-opacity="0.28"/>
    </filter>
  </defs>
  <g filter="url(#angelfish-shadow)">
    <path d="M92 132C92 74 138 34 204 38C262 42 304 80 314 124C308 172 264 204 202 206C132 204 94 176 92 132Z" fill="url(#angelfish-skin)"/>
    <path d="M126 144C142 172 174 190 212 188C242 186 272 172 292 146C270 188 228 208 178 206C148 204 130 182 126 144Z" fill="url(#angelfish-belly)" opacity="0.92"/>
    <path d="M306 120C350 98 390 96 402 112C390 128 350 164 316 170C324 156 326 136 306 120Z" fill="url(#angelfish-skin)"/>
    <path d="M170 42C180 10 204 0 220 6C216 34 230 56 252 80C226 68 196 56 170 42Z" fill="url(#angelfish-fin)" opacity="0.92"/>
    <path d="M160 178C182 194 198 214 196 232C176 220 154 206 134 188C148 186 156 182 160 178Z" fill="url(#angelfish-fin)" opacity="0.88"/>
    <path d="M92 132C92 74 138 34 204 38C262 42 304 80 314 124C308 172 264 204 202 206C132 204 94 176 92 132Z" fill="url(#angelfish-shine)" opacity="0.4"/>
    
    <path d="M132 86C186 64 246 70 294 106" stroke="#ffffff" stroke-width="16" stroke-linecap="round" opacity="0.22"/>
    <path d="M122 138C182 154 244 148 286 126" stroke="#ffffff" stroke-width="8" stroke-linecap="round" opacity="0.16"/>
  
    <path d="M142 104C154 120 154 146 144 164" stroke="#233244" stroke-width="5" stroke-linecap="round" opacity="0.42"/>
    <path d="M74 130C62 130 56 136 54 144" stroke="#243448" stroke-width="4" stroke-linecap="round" opacity="0.48"/>
    <circle cx="118" cy="112" r="15" fill="#ffffff"/>
    <circle cx="120" cy="112" r="7.5" fill="#1f2c3f"/>
    <circle cx="123" cy="108" r="2.4" fill="#ffffff"/>
    <path d="M120 98C184 74 256 78 312 114" stroke="#ffffff" stroke-width="6" stroke-linecap="round" opacity="0.16"/>
    <path d="M126 124C184 102 256 104 308 132" stroke="#102138" stroke-width="4" stroke-linecap="round" opacity="0.1"/>
  </g>
</svg>