<?xml version="1.0" encoding="UTF-8"?>
<svg width="1600" height="900" viewBox="0 0 1600 900" fill="none" xmlns="http://www.w3.org/2000/svg">
  <defs>
    <linearGradient id="sea-bg" x1="0" y1="0" x2="1600" y2="900" gradientUnits="userSpaceOnUse">
      <stop stop-color="#0b7695"/>
      <stop offset="0.34" stop-color="#094f78"/>
      <stop offset="0.74" stop-color="#08395d"/>
      <stop offset="1" stop-color="#031f34"/>
    </linearGradient>
    <radialGradient id="sea-light" cx="0" cy="0" r="1" gradientUnits="userSpaceOnUse" gradientTransform="translate(1180 126) rotate(116) scale(540 360)">
      <stop stop-color="#fff4be" stop-opacity="0.52"/>
      <stop offset="1" stop-color="#fff4be" stop-opacity="0"/>
    </radialGradient>
  </defs>
  <rect width="1600" height="900" fill="url(#sea-bg)"/>
  <ellipse cx="1160" cy="122" rx="520" ry="330" fill="url(#sea-light)"/>
  <path d="M1050 -20L1220 500" stroke="#ffffff" stroke-opacity="0.12" stroke-width="64" stroke-linecap="round"/>
  <path d="M1170 -40L1340 510" stroke="#ffffff" stroke-opacity="0.08" stroke-width="52" stroke-linecap="round"/>
  <path d="M1260 -20L1430 498" stroke="#d1f8ff" stroke-opacity="0.08" stroke-width="48" stroke-linecap="round"/>
  <g opacity="0.24">
    <path d="M0 674C132 652 272 684 392 718C546 762 706 760 846 720C994 678 1128 646 1280 672C1390 690 1500 736 1600 750" stroke="#8fe6ff" stroke-width="12" stroke-linecap="round"/>
    <path d="M-20 724C112 704 258 724 396 754C560 790 706 790 860 756C1002 726 1146 714 1288 736C1400 754 1502 792 1620 804" stroke="#d6fbff" stroke-opacity="0.52" stroke-width="9" stroke-linecap="round"/>
  </g>
  <path d="M0 710C120 676 226 676 332 716C432 754 560 776 692 748C822 718 926 676 1040 680C1186 686 1346 746 1600 792V900H0V710Z" fill="#0d4462" fill-opacity="0.72"/>
  <path d="M0 792C150 754 288 760 434 804C608 856 758 858 926 822C1088 788 1230 774 1600 842V900H0V792Z" fill="#0d2d44" fill-opacity="0.9"/>
  <path d="M66 900C110 760 152 706 204 698C232 694 256 712 282 742C250 752 228 778 208 900H66Z" fill="#d16aa1" fill-opacity="0.42"/>
  <path d="M212 900C256 764 300 708 352 700C382 696 408 716 438 748C406 760 380 790 360 900H212Z" fill="#ff9d7c" fill-opacity="0.34"/>
  <path d="M1280 900C1328 746 1388 694 1452 706C1488 712 1518 742 1546 780C1502 786 1470 820 1452 900H1280Z" fill="#f07e6c" fill-opacity="0.36"/>
  <circle cx="212" cy="164" r="14" fill="#d6fbff" fill-opacity="0.18"/>
  <circle cx="254" cy="208" r="9" fill="#d6fbff" fill-opacity="0.16"/>
  <circle cx="142" cy="246" r="7" fill="#d6fbff" fill-opacity="0.12"/>
  <circle cx="1396" cy="236" r="8" fill="#d6fbff" fill-opacity="0.14"/>
</svg>